<?xml version="1.0" encoding="UTF-8" standalone="no"?>
<!DOCTYPE svg PUBLIC "-//W3C//DTD SVG 1.1//EN"
 "http://www.w3.org/Graphics/SVG/1.1/DTD/svg11.dtd">
<!-- Generated by graphviz version 2.47.0 (20210316.0004)
 -->
<!-- Title: dependencies Pages: 1 -->
<svg width="1536pt" height="284pt"
 viewBox="0.00 0.00 1536.00 284.00" xmlns="http://www.w3.org/2000/svg" xmlns:xlink="http://www.w3.org/1999/xlink">
<g id="graph0" class="graph" transform="scale(1 1) rotate(0) translate(4 280)">
<title>dependencies</title>
<polygon fill="white" stroke="transparent" points="-4,4 -4,-280 1532,-280 1532,4 -4,4"/>
<text text-anchor="start" x="743.01" y="-42.4" font-family="Times-12" font-weight="bold" font-size="14.00">Legend</text>
<polygon fill="#ffffb3" stroke="transparent" points="530,-10 530,-30 550,-30 550,-10 530,-10"/>
<text text-anchor="start" x="553.63" y="-15.4" font-family="Times-12" font-size="14.00"> &#160;Declarations</text>
<polygon fill="#8dd3c7" stroke="transparent" points="643,-10 643,-30 663,-30 663,-10 643,-10"/>
<text text-anchor="start" x="666.73" y="-15.4" font-family="Times-12" font-size="14.00"> &#160;Module</text>
<polygon fill="#80b1d3" stroke="transparent" points="729,-10 729,-30 749,-30 749,-10 729,-10"/>
<text text-anchor="start" x="752.78" y="-15.4" font-family="Times-12" font-size="14.00"> &#160;Bootstrap</text>
<polygon fill="#fdb462" stroke="transparent" points="826,-10 826,-30 846,-30 846,-10 826,-10"/>
<text text-anchor="start" x="849.67" y="-15.4" font-family="Times-12" font-size="14.00"> &#160;Providers</text>
<polygon fill="#fb8072" stroke="transparent" points="922,-10 922,-30 942,-30 942,-10 922,-10"/>
<text text-anchor="start" x="945.73" y="-15.4" font-family="Times-12" font-size="14.00"> &#160;Exports</text>
<g id="clust1" class="cluster">
<title>cluster_AppModule</title>
<polygon fill="none" stroke="black" stroke-dasharray="1,5" points="8,-70 8,-268 1520,-268 1520,-70 8,-70"/>
</g>
<g id="clust13" class="cluster">
<title>cluster_AppModule_bootstrap</title>
<polygon fill="none" stroke="black" points="782,-208 782,-260 906,-260 906,-208 782,-208"/>
</g>
<g id="clust11" class="cluster">
<title>cluster_AppModule_imports</title>
<polygon fill="none" stroke="black" points="1368,-78 1368,-130 1512,-130 1512,-78 1368,-78"/>
</g>
<g id="clust2" class="cluster">
<title>cluster_AppModule_declarations</title>
<polygon fill="none" stroke="black" points="16,-78 16,-130 1360,-130 1360,-78 16,-78"/>
</g>
<!-- AppComponent -->
<g id="node1" class="node">
<title>AppComponent</title>
<polygon fill="#ffffb3" stroke="black" points="1351.94,-122 1246.06,-122 1246.06,-86 1351.94,-86 1351.94,-122"/>
<text text-anchor="middle" x="1299" y="-99.8" font-family="Times,serif" font-size="14.00">AppComponent</text>
</g>
<!-- AppModule -->
<g id="node9" class="node">
<title>AppModule</title>
<polygon fill="#8dd3c7" stroke="black" points="885.66,-187 882.66,-191 861.66,-191 858.66,-187 802.34,-187 802.34,-151 885.66,-151 885.66,-187"/>
<text text-anchor="middle" x="844" y="-164.8" font-family="Times,serif" font-size="14.00">AppModule</text>
</g>
<!-- AppComponent&#45;&gt;AppModule -->
<g id="edge1" class="edge">
<title>AppComponent&#45;&gt;AppModule</title>
<path fill="none" stroke="black" d="M1299,-122.13C1299,-142.57 1299,-173 1299,-173 1299,-173 895.99,-173 895.99,-173"/>
<polygon fill="black" stroke="black" points="895.99,-169.5 885.99,-173 895.99,-176.5 895.99,-169.5"/>
</g>
<!-- MovieCardComponent -->
<g id="node2" class="node">
<title>MovieCardComponent</title>
<polygon fill="#ffffb3" stroke="black" points="1228.59,-122 1083.41,-122 1083.41,-86 1228.59,-86 1228.59,-122"/>
<text text-anchor="middle" x="1156" y="-99.8" font-family="Times,serif" font-size="14.00">MovieCardComponent</text>
</g>
<!-- MovieCardComponent&#45;&gt;AppModule -->
<g id="edge2" class="edge">
<title>MovieCardComponent&#45;&gt;AppModule</title>
<path fill="none" stroke="black" d="M1156,-122.27C1156,-140.56 1156,-166 1156,-166 1156,-166 895.75,-166 895.75,-166"/>
<polygon fill="black" stroke="black" points="895.75,-162.5 885.75,-166 895.75,-169.5 895.75,-162.5"/>
</g>
<!-- MovieInfoComponent -->
<g id="node3" class="node">
<title>MovieInfoComponent</title>
<polygon fill="#ffffb3" stroke="black" points="1065.7,-122 924.3,-122 924.3,-86 1065.7,-86 1065.7,-122"/>
<text text-anchor="middle" x="995" y="-99.8" font-family="Times,serif" font-size="14.00">MovieInfoComponent</text>
</g>
<!-- MovieInfoComponent&#45;&gt;AppModule -->
<g id="edge3" class="edge">
<title>MovieInfoComponent&#45;&gt;AppModule</title>
<path fill="none" stroke="black" d="M995,-122.01C995,-138.05 995,-159 995,-159 995,-159 895.66,-159 895.66,-159"/>
<polygon fill="black" stroke="black" points="895.66,-155.5 885.66,-159 895.66,-162.5 895.66,-155.5"/>
</g>
<!-- TopBarComponent -->
<g id="node4" class="node">
<title>TopBarComponent</title>
<polygon fill="#ffffb3" stroke="black" points="906.1,-122 781.9,-122 781.9,-86 906.1,-86 906.1,-122"/>
<text text-anchor="middle" x="844" y="-99.8" font-family="Times,serif" font-size="14.00">TopBarComponent</text>
</g>
<!-- TopBarComponent&#45;&gt;AppModule -->
<g id="edge4" class="edge">
<title>TopBarComponent&#45;&gt;AppModule</title>
<path fill="none" stroke="black" d="M844,-122.11C844,-122.11 844,-140.99 844,-140.99"/>
<polygon fill="black" stroke="black" points="840.5,-140.99 844,-150.99 847.5,-140.99 840.5,-140.99"/>
</g>
<!-- UserLoginFormComponent -->
<g id="node5" class="node">
<title>UserLoginFormComponent</title>
<polygon fill="#ffffb3" stroke="black" points="763.54,-122 592.46,-122 592.46,-86 763.54,-86 763.54,-122"/>
<text text-anchor="middle" x="678" y="-99.8" font-family="Times,serif" font-size="14.00">UserLoginFormComponent</text>
</g>
<!-- UserLoginFormComponent&#45;&gt;AppModule -->
<g id="edge5" class="edge">
<title>UserLoginFormComponent&#45;&gt;AppModule</title>
<path fill="none" stroke="black" d="M678,-122.01C678,-138.05 678,-159 678,-159 678,-159 792.11,-159 792.11,-159"/>
<polygon fill="black" stroke="black" points="792.11,-162.5 802.11,-159 792.11,-155.5 792.11,-162.5"/>
</g>
<!-- UserProfileComponent -->
<g id="node6" class="node">
<title>UserProfileComponent</title>
<polygon fill="#ffffb3" stroke="black" points="573.86,-122 428.14,-122 428.14,-86 573.86,-86 573.86,-122"/>
<text text-anchor="middle" x="501" y="-99.8" font-family="Times,serif" font-size="14.00">UserProfileComponent</text>
</g>
<!-- UserProfileComponent&#45;&gt;AppModule -->
<g id="edge6" class="edge">
<title>UserProfileComponent&#45;&gt;AppModule</title>
<path fill="none" stroke="black" d="M501,-122.27C501,-140.56 501,-166 501,-166 501,-166 792.28,-166 792.28,-166"/>
<polygon fill="black" stroke="black" points="792.28,-169.5 802.28,-166 792.28,-162.5 792.28,-169.5"/>
</g>
<!-- UserRegistrationFormComponent -->
<g id="node7" class="node">
<title>UserRegistrationFormComponent</title>
<polygon fill="#ffffb3" stroke="black" points="410.03,-122 203.97,-122 203.97,-86 410.03,-86 410.03,-122"/>
<text text-anchor="middle" x="307" y="-99.8" font-family="Times,serif" font-size="14.00">UserRegistrationFormComponent</text>
</g>
<!-- UserRegistrationFormComponent&#45;&gt;AppModule -->
<g id="edge7" class="edge">
<title>UserRegistrationFormComponent&#45;&gt;AppModule</title>
<path fill="none" stroke="black" d="M307,-122.13C307,-142.57 307,-173 307,-173 307,-173 792.31,-173 792.31,-173"/>
<polygon fill="black" stroke="black" points="792.31,-176.5 802.31,-173 792.31,-169.5 792.31,-176.5"/>
</g>
<!-- WelcomePageComponent -->
<g id="node8" class="node">
<title>WelcomePageComponent</title>
<polygon fill="#ffffb3" stroke="black" points="186.18,-122 23.82,-122 23.82,-86 186.18,-86 186.18,-122"/>
<text text-anchor="middle" x="105" y="-99.8" font-family="Times,serif" font-size="14.00">WelcomePageComponent</text>
</g>
<!-- WelcomePageComponent&#45;&gt;AppModule -->
<g id="edge8" class="edge">
<title>WelcomePageComponent&#45;&gt;AppModule</title>
<path fill="none" stroke="black" d="M105,-122.01C105,-144.49 105,-180 105,-180 105,-180 792.15,-180 792.15,-180"/>
<polygon fill="black" stroke="black" points="792.15,-183.5 802.15,-180 792.15,-176.5 792.15,-183.5"/>
</g>
<!-- AppComponent  -->
<g id="node11" class="node">
<title>AppComponent </title>
<polygon fill="#80b1d3" stroke="black" points="898.44,-252 789.56,-252 789.56,-216 898.44,-216 898.44,-252"/>
<text text-anchor="middle" x="844" y="-229.8" font-family="Times,serif" font-size="14.00">AppComponent </text>
</g>
<!-- AppModule&#45;&gt;AppComponent  -->
<g id="edge10" class="edge">
<title>AppModule&#45;&gt;AppComponent </title>
<path fill="none" stroke="black" stroke-dasharray="1,5" d="M844,-187.11C844,-187.11 844,-205.99 844,-205.99"/>
<polygon fill="black" stroke="black" points="840.5,-205.99 844,-215.99 847.5,-205.99 840.5,-205.99"/>
</g>
<!-- AppRoutingModule -->
<g id="node10" class="node">
<title>AppRoutingModule</title>
<polygon fill="#8dd3c7" stroke="black" points="1504.27,-122 1501.27,-126 1480.27,-126 1477.27,-122 1375.73,-122 1375.73,-86 1504.27,-86 1504.27,-122"/>
<text text-anchor="middle" x="1440" y="-99.8" font-family="Times,serif" font-size="14.00">AppRoutingModule</text>
</g>
<!-- AppRoutingModule&#45;&gt;AppModule -->
<g id="edge9" class="edge">
<title>AppRoutingModule&#45;&gt;AppModule</title>
<path fill="none" stroke="black" d="M1440,-122.01C1440,-144.49 1440,-180 1440,-180 1440,-180 895.91,-180 895.91,-180"/>
<polygon fill="black" stroke="black" points="895.91,-176.5 885.91,-180 895.91,-183.5 895.91,-176.5"/>
</g>
</g>
</svg>
