<?xml version="1.0" encoding="UTF-8" standalone="no"?>
<!DOCTYPE svg PUBLIC "-//W3C//DTD SVG 1.1//EN"
 "http://www.w3.org/Graphics/SVG/1.1/DTD/svg11.dtd">
<!-- Generated by graphviz version 2.47.0 (20210316.0004)
 -->
<!-- Title: dependencies Pages: 1 -->
<svg width="1536pt" height="284pt"
 viewBox="0.00 0.00 1536.00 284.00" xmlns="http://www.w3.org/2000/svg" xmlns:xlink="http://www.w3.org/1999/xlink">
<g id="graph0" class="graph" transform="scale(1 1) rotate(0) translate(4 280)">
<title>dependencies</title>
<polygon fill="white" stroke="transparent" points="-4,4 -4,-280 1532,-280 1532,4 -4,4"/>
<text text-anchor="start" x="743.01" y="-42.4" font-family="Times-12" font-weight="bold" font-size="14.00">Legend</text>
<polygon fill="#ffffb3" stroke="transparent" points="530,-10 530,-30 550,-30 550,-10 530,-10"/>
<text text-anchor="start" x="553.63" y="-15.4" font-family="Times-12" font-size="14.00"> &#160;Declarations</text>
<polygon fill="#8dd3c7" stroke="transparent" points="643,-10 643,-30 663,-30 663,-10 643,-10"/>
<text text-anchor="start" x="666.73" y="-15.4" font-family="Times-12" font-size="14.00"> &#160;Module</text>
<polygon fill="#80b1d3" stroke="transparent" points="729,-10 729,-30 749,-30 749,-10 729,-10"/>
<text text-anchor="start" x="752.78" y="-15.4" font-family="Times-12" font-size="14.00"> &#160;Bootstrap</text>
<polygon fill="#fdb462" stroke="transparent" points="826,-10 826,-30 846,-30 846,-10 826,-10"/>
<text text-anchor="start" x="849.67" y="-15.4" font-family="Times-12" font-size="14.00"> &#160;Providers</text>
<polygon fill="#fb8072" stroke="transparent" points="922,-10 922,-30 942,-30 942,-10 922,-10"/>
<text text-anchor="start" x="945.73" y="-15.4" font-family="Times-12" font-size="14.00"> &#160;Exports</text>
<g id="clust1" class="cluster">
<title>cluster_AppModule</title>
<polygon fill="none" stroke="black" stroke-dasharray="1,5" points="8,-70 8,-268 1520,-268 1520,-70 8,-70"/>
</g>
<g id="clust2" class="cluster">
<title>cluster_AppModule_declarations</title>
<polygon fill="none" stroke="black" points="168,-78 168,-130 1512,-130 1512,-78 168,-78"/>
</g>
<g id="clust11" class="cluster">
<title>cluster_AppModule_imports</title>
<polygon fill="none" stroke="black" points="16,-78 16,-130 160,-130 160,-78 16,-78"/>
</g>
<g id="clust13" class="cluster">
<title>cluster_AppModule_bootstrap</title>
<polygon fill="none" stroke="black" points="768,-208 768,-260 892,-260 892,-208 768,-208"/>
</g>
<!-- AppComponent -->
<g id="node1" class="node">
<title>AppComponent</title>
<polygon fill="#ffffb3" stroke="black" points="1503.94,-122 1398.06,-122 1398.06,-86 1503.94,-86 1503.94,-122"/>
<text text-anchor="middle" x="1451" y="-99.8" font-family="Times,serif" font-size="14.00">AppComponent</text>
</g>
<!-- AppModule -->
<g id="node9" class="node">
<title>AppModule</title>
<polygon fill="#8dd3c7" stroke="black" points="871.66,-187 868.66,-191 847.66,-191 844.66,-187 788.34,-187 788.34,-151 871.66,-151 871.66,-187"/>
<text text-anchor="middle" x="830" y="-164.8" font-family="Times,serif" font-size="14.00">AppModule</text>
</g>
<!-- AppComponent&#45;&gt;AppModule -->
<g id="edge1" class="edge">
<title>AppComponent&#45;&gt;AppModule</title>
<path fill="none" stroke="black" d="M1451,-122.01C1451,-144.49 1451,-180 1451,-180 1451,-180 881.71,-180 881.71,-180"/>
<polygon fill="black" stroke="black" points="881.71,-176.5 871.71,-180 881.71,-183.5 881.71,-176.5"/>
</g>
<!-- MovieCardComponent -->
<g id="node2" class="node">
<title>MovieCardComponent</title>
<polygon fill="#ffffb3" stroke="black" points="1380.59,-122 1235.41,-122 1235.41,-86 1380.59,-86 1380.59,-122"/>
<text text-anchor="middle" x="1308" y="-99.8" font-family="Times,serif" font-size="14.00">MovieCardComponent</text>
</g>
<!-- MovieCardComponent&#45;&gt;AppModule -->
<g id="edge2" class="edge">
<title>MovieCardComponent&#45;&gt;AppModule</title>
<path fill="none" stroke="black" d="M1308,-122.13C1308,-142.57 1308,-173 1308,-173 1308,-173 882,-173 882,-173"/>
<polygon fill="black" stroke="black" points="882,-169.5 872,-173 882,-176.5 882,-169.5"/>
</g>
<!-- MovieInfoComponent -->
<g id="node3" class="node">
<title>MovieInfoComponent</title>
<polygon fill="#ffffb3" stroke="black" points="1217.7,-122 1076.3,-122 1076.3,-86 1217.7,-86 1217.7,-122"/>
<text text-anchor="middle" x="1147" y="-99.8" font-family="Times,serif" font-size="14.00">MovieInfoComponent</text>
</g>
<!-- MovieInfoComponent&#45;&gt;AppModule -->
<g id="edge3" class="edge">
<title>MovieInfoComponent&#45;&gt;AppModule</title>
<path fill="none" stroke="black" d="M1147,-122.27C1147,-140.56 1147,-166 1147,-166 1147,-166 881.77,-166 881.77,-166"/>
<polygon fill="black" stroke="black" points="881.77,-162.5 871.77,-166 881.77,-169.5 881.77,-162.5"/>
</g>
<!-- TopBarComponent -->
<g id="node4" class="node">
<title>TopBarComponent</title>
<polygon fill="#ffffb3" stroke="black" points="1058.1,-122 933.9,-122 933.9,-86 1058.1,-86 1058.1,-122"/>
<text text-anchor="middle" x="996" y="-99.8" font-family="Times,serif" font-size="14.00">TopBarComponent</text>
</g>
<!-- TopBarComponent&#45;&gt;AppModule -->
<g id="edge4" class="edge">
<title>TopBarComponent&#45;&gt;AppModule</title>
<path fill="none" stroke="black" d="M996,-122.01C996,-138.05 996,-159 996,-159 996,-159 881.89,-159 881.89,-159"/>
<polygon fill="black" stroke="black" points="881.89,-155.5 871.89,-159 881.89,-162.5 881.89,-155.5"/>
</g>
<!-- UserLoginFormComponent -->
<g id="node5" class="node">
<title>UserLoginFormComponent</title>
<polygon fill="#ffffb3" stroke="black" points="915.54,-122 744.46,-122 744.46,-86 915.54,-86 915.54,-122"/>
<text text-anchor="middle" x="830" y="-99.8" font-family="Times,serif" font-size="14.00">UserLoginFormComponent</text>
</g>
<!-- UserLoginFormComponent&#45;&gt;AppModule -->
<g id="edge5" class="edge">
<title>UserLoginFormComponent&#45;&gt;AppModule</title>
<path fill="none" stroke="black" d="M830,-122.11C830,-122.11 830,-140.99 830,-140.99"/>
<polygon fill="black" stroke="black" points="826.5,-140.99 830,-150.99 833.5,-140.99 826.5,-140.99"/>
</g>
<!-- UserProfileComponent -->
<g id="node6" class="node">
<title>UserProfileComponent</title>
<polygon fill="#ffffb3" stroke="black" points="725.86,-122 580.14,-122 580.14,-86 725.86,-86 725.86,-122"/>
<text text-anchor="middle" x="653" y="-99.8" font-family="Times,serif" font-size="14.00">UserProfileComponent</text>
</g>
<!-- UserProfileComponent&#45;&gt;AppModule -->
<g id="edge6" class="edge">
<title>UserProfileComponent&#45;&gt;AppModule</title>
<path fill="none" stroke="black" d="M653,-122.01C653,-138.05 653,-159 653,-159 653,-159 778.05,-159 778.05,-159"/>
<polygon fill="black" stroke="black" points="778.05,-162.5 788.05,-159 778.05,-155.5 778.05,-162.5"/>
</g>
<!-- UserRegistrationFormComponent -->
<g id="node7" class="node">
<title>UserRegistrationFormComponent</title>
<polygon fill="#ffffb3" stroke="black" points="562.03,-122 355.97,-122 355.97,-86 562.03,-86 562.03,-122"/>
<text text-anchor="middle" x="459" y="-99.8" font-family="Times,serif" font-size="14.00">UserRegistrationFormComponent</text>
</g>
<!-- UserRegistrationFormComponent&#45;&gt;AppModule -->
<g id="edge7" class="edge">
<title>UserRegistrationFormComponent&#45;&gt;AppModule</title>
<path fill="none" stroke="black" d="M459,-122.27C459,-140.56 459,-166 459,-166 459,-166 778.16,-166 778.16,-166"/>
<polygon fill="black" stroke="black" points="778.16,-169.5 788.16,-166 778.16,-162.5 778.16,-169.5"/>
</g>
<!-- WelcomePageComponent -->
<g id="node8" class="node">
<title>WelcomePageComponent</title>
<polygon fill="#ffffb3" stroke="black" points="338.18,-122 175.82,-122 175.82,-86 338.18,-86 338.18,-122"/>
<text text-anchor="middle" x="257" y="-99.8" font-family="Times,serif" font-size="14.00">WelcomePageComponent</text>
</g>
<!-- WelcomePageComponent&#45;&gt;AppModule -->
<g id="edge8" class="edge">
<title>WelcomePageComponent&#45;&gt;AppModule</title>
<path fill="none" stroke="black" d="M257,-122.13C257,-142.57 257,-173 257,-173 257,-173 778.33,-173 778.33,-173"/>
<polygon fill="black" stroke="black" points="778.33,-176.5 788.33,-173 778.33,-169.5 778.33,-176.5"/>
</g>
<!-- AppComponent  -->
<g id="node11" class="node">
<title>AppComponent </title>
<polygon fill="#80b1d3" stroke="black" points="884.44,-252 775.56,-252 775.56,-216 884.44,-216 884.44,-252"/>
<text text-anchor="middle" x="830" y="-229.8" font-family="Times,serif" font-size="14.00">AppComponent </text>
</g>
<!-- AppModule&#45;&gt;AppComponent  -->
<g id="edge10" class="edge">
<title>AppModule&#45;&gt;AppComponent </title>
<path fill="none" stroke="black" stroke-dasharray="1,5" d="M830,-187.11C830,-187.11 830,-205.99 830,-205.99"/>
<polygon fill="black" stroke="black" points="826.5,-205.99 830,-215.99 833.5,-205.99 826.5,-205.99"/>
</g>
<!-- AppRoutingModule -->
<g id="node10" class="node">
<title>AppRoutingModule</title>
<polygon fill="#8dd3c7" stroke="black" points="152.27,-122 149.27,-126 128.27,-126 125.27,-122 23.73,-122 23.73,-86 152.27,-86 152.27,-122"/>
<text text-anchor="middle" x="88" y="-99.8" font-family="Times,serif" font-size="14.00">AppRoutingModule</text>
</g>
<!-- AppRoutingModule&#45;&gt;AppModule -->
<g id="edge9" class="edge">
<title>AppRoutingModule&#45;&gt;AppModule</title>
<path fill="none" stroke="black" d="M88,-122.01C88,-144.49 88,-180 88,-180 88,-180 778.25,-180 778.25,-180"/>
<polygon fill="black" stroke="black" points="778.25,-183.5 788.25,-180 778.25,-176.5 778.25,-183.5"/>
</g>
</g>
</svg>
